<?xml version="1.0" encoding="iso-8859-1"?>
<!-- Generator: Adobe Illustrator 13.0.0, SVG Export Plug-In . SVG Version: 6.00 Build 14948)  -->
<!DOCTYPE svg PUBLIC "-//W3C//DTD SVG 1.1//EN" "http://www.w3.org/Graphics/SVG/1.1/DTD/svg11.dtd">
<svg version="1.1" id="Layer_1" xmlns="http://www.w3.org/2000/svg" xmlns:xlink="http://www.w3.org/1999/xlink" x="0px" y="0px"
	 width="100px" height="100px" viewBox="0 0 100 100" enable-background="new 0 0 100 100" xml:space="preserve">
<g>
	<path fill="#9DC44D" d="M76.836,67.062c-0.248-0.872-1.242-1.151-2.045-1.028c-10.752,1.028-21.502,2.084-32.256,3.077
		c-5.74-13.27-11.602-26.485-17.383-39.735c-1.532-0.34-15.428-2.88-16.957-3.22c-0.354,1.491-0.725,2.982-1.11,4.466
		c0.738-0.013,13.845,2.349,14.55,2.594c1.454,3.118,2.703,6.332,4.14,9.45c1.273,1.532,2.774,2.853,4.116,4.324
		c-4.351-0.198-8.698-0.538-13.046-0.654c3.673,1.158,7.612,1.103,11.344,2.043c0.912,2.13,1.841,4.255,2.744,6.386
		c0.197,0.442,0.381,0.919,0.752,1.246c1.375,1.307,2.805,2.56,4.197,3.854c-4.071,0.055-8.15,0.041-12.218,0.23
		c3.275,0.778,6.696,0.505,9.995,1.132c0.205,0.251,0.334,0.564,0.477,0.857c1.63,3.745,3.278,7.49,4.885,11.255
		c0.327,0.782,0.787,1.77,1.767,1.811c1.069-0.021,2.118-0.271,3.176-0.407c0.255-1.125,0.616-2.268,1.44-3.1
		c0.983-1.137,2.658-1.708,4.095-1.144c1.371,0.45,2.297,1.696,2.774,3.011c1.981-0.267,3.96-0.58,5.94-0.865
		c0.527-2.117,2.377-4.045,4.668-3.997c1.682,0,3.094,1.227,3.621,2.765c2.656-0.388,5.311-0.777,7.967-1.165
		C75.922,70.071,77.309,68.573,76.836,67.062z"/>
	<g>
		<radialGradient id="SVGID_1_" cx="45.9502" cy="61.8096" r="51.4695" gradientUnits="userSpaceOnUse">
			<stop  offset="0" style="stop-color:#5BA59B"/>
			<stop  offset="1" style="stop-color:#1C433F"/>
		</radialGradient>
		<path fill="url(#SVGID_1_)" d="M33.544,37.444c0.657-0.368,1.443-0.231,2.158-0.156c17.294,2.437,34.597,4.827,51.899,7.258
			c1.355,0.17,2.965,1.083,2.902,2.642c-0.197,0.634-0.625,1.151-1.037,1.662c-3.615,4.324-6.832,8.967-9.727,13.8
			c-0.471,0.864-1.361,1.443-2.352,1.472c-10.596,0.83-21.189,1.661-31.787,2.472c-1.096,0.211-2.199-0.416-2.581-1.465
			c-3.452-7.693-6.911-15.394-10.4-23.067C31.951,40.562,31.981,38.371,33.544,37.444z M38.487,41.87
			c3.053,6.891,6.09,13.787,9.096,20.704c9.338-0.414,18.676-0.829,28.014-1.286c2.514-4.983,5.334-9.818,8.498-14.42
			C68.887,45.227,53.688,43.545,38.487,41.87z"/>
	</g>
	<radialGradient id="SVGID_2_" cx="45.9507" cy="61.8115" r="51.4626" gradientUnits="userSpaceOnUse">
		<stop  offset="0" style="stop-color:#5BA59B"/>
		<stop  offset="1" style="stop-color:#1C433F"/>
	</radialGradient>
	<path fill="url(#SVGID_2_)" d="M61.578,69.689c1.314-0.482,2.973-0.075,3.729,1.151c1.645,2.676-0.939,6.74-4.076,6.264
		c-2.059-0.415-2.795-2.961-2.135-4.745C59.494,71.175,60.391,70.118,61.578,69.689z"/>
	<radialGradient id="SVGID_3_" cx="45.9507" cy="61.8145" r="51.4438" gradientUnits="userSpaceOnUse">
		<stop  offset="0" style="stop-color:#5BA59B"/>
		<stop  offset="1" style="stop-color:#1C433F"/>
	</radialGradient>
	<path fill="url(#SVGID_3_)" d="M47.413,71.379c2.339-0.735,4.477,1.607,4.304,3.86c0.129,2.362-1.89,5.249-4.495,4.603
		C43.709,78.576,43.917,72.558,47.413,71.379z"/>
</g>
</svg>
